<?xml version="1.0" encoding="iso-8859-1"?>
<!-- Generator: Adobe Illustrator 16.0.0, SVG Export Plug-In . SVG Version: 6.00 Build 0)  -->
<!DOCTYPE svg PUBLIC "-//W3C//DTD SVG 1.1//EN" "http://www.w3.org/Graphics/SVG/1.1/DTD/svg11.dtd">
<svg version="1.1" xmlns="http://www.w3.org/2000/svg" xmlns:xlink="http://www.w3.org/1999/xlink" x="0px" y="0px"
	 width="44.566px" height="55.846px" viewBox="0 0 44.566 55.846" style="enable-background:new 0 0 44.566 55.846;"
	 xml:space="preserve">
<g id="_x34_4_x5F_plus">
	<g>
		<g>
			<path style="fill:#44444D;" d="M22.058,27.304c-0.31,0-0.625-0.079-0.914-0.243c-4.105-2.345-9.715-6.297-11.031-13.515
				c-0.463-2.539-0.083-6.611,2.519-9.731C14.083,2.074,16.785,0,21.412,0c5.788,0,10.093,3.389,11.239,8.843
				c1.078,5.136-1.176,11.805-7.572,14.615c-0.935,0.408-2.023-0.014-2.433-0.948c-0.41-0.933,0.014-2.022,0.947-2.433
				c4.596-2.019,6.218-6.798,5.445-10.476c-0.777-3.7-3.628-5.91-7.625-5.91c-2.567,0-4.567,0.837-5.943,2.488
				c-1.67,2.002-2.068,4.81-1.723,6.703c0.791,4.341,3.724,7.827,9.229,10.971c0.885,0.506,1.193,1.634,0.687,2.52
				C23.322,26.969,22.699,27.304,22.058,27.304z"/>
		</g>
		<g>
			<path style="fill:#44444D;" d="M17.657,46.725H1.846C0.827,46.725,0,45.898,0,44.879c0-7.389,0.473-12.365,1.406-14.793
				c1.846-4.825,9.714-7.839,10.605-8.166c0.903-0.333,1.912,0.086,2.314,0.961c1.561,3.396,4.073,5.344,6.893,5.345
				c2.832,0,5.441-1.998,6.98-5.345c0.403-0.874,1.413-1.293,2.314-0.961c0.892,0.327,8.759,3.341,10.606,8.169
				c0.363,0.952-0.113,2.02-1.064,2.384c-0.95,0.364-2.02-0.113-2.385-1.065c-0.85-2.222-4.557-4.31-6.95-5.403
				c-2.243,3.734-5.697,5.913-9.501,5.913c0,0,0,0,0,0c-3.758,0-7.183-2.182-9.418-5.917c-2.719,1.232-6.157,3.345-6.947,5.407
				c-0.403,1.051-1.059,3.93-1.15,11.626h13.955c1.02,0,1.846,0.826,1.846,1.846S18.677,46.725,17.657,46.725z"/>
		</g>
		<path style="fill:#44444D;" d="M32.537,31.785c-6.645,0-12.031,5.389-12.031,12.031c0,6.645,5.386,12.029,12.031,12.029
			c6.642,0,12.029-5.385,12.029-12.029C44.566,37.174,39.179,31.785,32.537,31.785z M38.637,45.664h-4.254v4.252
			c0,1.02-0.826,1.846-1.846,1.846s-1.846-0.826-1.846-1.846v-4.252h-4.254c-1.02,0-1.846-0.826-1.846-1.846
			s0.826-1.846,1.846-1.846h4.254v-4.254c0-1.02,0.826-1.846,1.846-1.846s1.846,0.826,1.846,1.846v4.254h4.254
			c1.02,0,1.846,0.826,1.846,1.846S39.656,45.664,38.637,45.664z"/>
	</g>
</g>
<g id="Layer_1">
</g>
</svg>
